<svg width="368" height="368" viewBox="0 0 368 368" fill="none" xmlns="http://www.w3.org/2000/svg">
<rect x="368" width="46" height="46" transform="rotate(90 368 0)" fill="black"/>
<rect x="368" y="92" width="46" height="46" transform="rotate(90 368 92)" fill="black"/>
<rect x="368" y="184" width="46" height="46" transform="rotate(90 368 184)" fill="black"/>
<rect x="368" y="276" width="46" height="46" transform="rotate(90 368 276)" fill="black"/>
<rect x="368" y="46" width="46" height="46" transform="rotate(90 368 46)" fill="white"/>
<rect x="368" y="138" width="46" height="46" transform="rotate(90 368 138)" fill="white"/>
<rect x="368" y="230" width="46" height="46" transform="rotate(90 368 230)" fill="white"/>
<rect x="368" y="322" width="46" height="46" transform="rotate(90 368 322)" fill="white"/>
<rect width="46" height="46" transform="matrix(4.37114e-08 -1 -1 -4.37114e-08 322 368)" fill="black"/>
<rect width="46" height="46" transform="matrix(4.37114e-08 -1 -1 -4.37114e-08 322 276)" fill="black"/>
<rect width="46" height="46" transform="matrix(4.37114e-08 -1 -1 -4.37114e-08 322 184)" fill="black"/>
<rect width="46" height="46" transform="matrix(4.37114e-08 -1 -1 -4.37114e-08 322 92)" fill="black"/>
<rect width="46" height="46" transform="matrix(4.37114e-08 -1 -1 -4.37114e-08 322 322)" fill="white"/>
<rect width="46" height="46" transform="matrix(4.37114e-08 -1 -1 -4.37114e-08 322 230)" fill="white"/>
<rect width="46" height="46" transform="matrix(4.37114e-08 -1 -1 -4.37114e-08 322 138)" fill="white"/>
<rect width="46" height="46" transform="matrix(4.37114e-08 -1 -1 -4.37114e-08 322 46)" fill="white"/>
<rect x="276" width="46" height="46" transform="rotate(90 276 0)" fill="black"/>
<rect x="276" y="92" width="46" height="46" transform="rotate(90 276 92)" fill="black"/>
<rect x="276" y="184" width="46" height="46" transform="rotate(90 276 184)" fill="black"/>
<rect x="276" y="276" width="46" height="46" transform="rotate(90 276 276)" fill="black"/>
<rect x="276" y="46" width="46" height="46" transform="rotate(90 276 46)" fill="white"/>
<rect x="276" y="138" width="46" height="46" transform="rotate(90 276 138)" fill="white"/>
<rect x="276" y="230" width="46" height="46" transform="rotate(90 276 230)" fill="white"/>
<rect x="276" y="322" width="46" height="46" transform="rotate(90 276 322)" fill="white"/>
<rect width="46" height="46" transform="matrix(4.37114e-08 -1 -1 -4.37114e-08 230 368)" fill="black"/>
<rect width="46" height="46" transform="matrix(4.37114e-08 -1 -1 -4.37114e-08 230 276)" fill="black"/>
<rect width="46" height="46" transform="matrix(4.37114e-08 -1 -1 -4.37114e-08 230 184)" fill="black"/>
<rect width="46" height="46" transform="matrix(4.37114e-08 -1 -1 -4.37114e-08 230 92)" fill="black"/>
<rect width="46" height="46" transform="matrix(4.37114e-08 -1 -1 -4.37114e-08 230 322)" fill="white"/>
<rect width="46" height="46" transform="matrix(4.37114e-08 -1 -1 -4.37114e-08 230 230)" fill="white"/>
<rect width="46" height="46" transform="matrix(4.37114e-08 -1 -1 -4.37114e-08 230 138)" fill="white"/>
<rect width="46" height="46" transform="matrix(4.37114e-08 -1 -1 -4.37114e-08 230 46)" fill="white"/>
<rect x="184" width="46" height="46" transform="rotate(90 184 0)" fill="black"/>
<rect x="184" y="92" width="46" height="46" transform="rotate(90 184 92)" fill="black"/>
<rect x="184" y="184" width="46" height="46" transform="rotate(90 184 184)" fill="black"/>
<rect x="184" y="276" width="46" height="46" transform="rotate(90 184 276)" fill="black"/>
<rect x="184" y="46" width="46" height="46" transform="rotate(90 184 46)" fill="white"/>
<rect x="184" y="138" width="46" height="46" transform="rotate(90 184 138)" fill="white"/>
<rect x="184" y="230" width="46" height="46" transform="rotate(90 184 230)" fill="white"/>
<rect x="184" y="322" width="46" height="46" transform="rotate(90 184 322)" fill="white"/>
<rect width="46" height="46" transform="matrix(4.37114e-08 -1 -1 -4.37114e-08 138 368)" fill="black"/>
<rect width="46" height="46" transform="matrix(4.37114e-08 -1 -1 -4.37114e-08 138 276)" fill="black"/>
<rect width="46" height="46" transform="matrix(4.37114e-08 -1 -1 -4.37114e-08 138 184)" fill="black"/>
<rect width="46" height="46" transform="matrix(4.37114e-08 -1 -1 -4.37114e-08 138 92)" fill="black"/>
<rect width="46" height="46" transform="matrix(4.37114e-08 -1 -1 -4.37114e-08 138 322)" fill="white"/>
<rect width="46" height="46" transform="matrix(4.37114e-08 -1 -1 -4.37114e-08 138 230)" fill="white"/>
<rect width="46" height="46" transform="matrix(4.37114e-08 -1 -1 -4.37114e-08 138 138)" fill="white"/>
<rect width="46" height="46" transform="matrix(4.37114e-08 -1 -1 -4.37114e-08 138 46)" fill="white"/>
<rect width="46" height="46" transform="matrix(4.37114e-08 -1 -1 -4.37114e-08 46 368)" fill="black"/>
<rect width="46" height="46" transform="matrix(4.37114e-08 -1 -1 -4.37114e-08 46 276)" fill="black"/>
<rect width="46" height="46" transform="matrix(4.37114e-08 -1 -1 -4.37114e-08 46 184)" fill="black"/>
<rect width="46" height="46" transform="matrix(4.37114e-08 -1 -1 -4.37114e-08 46 92)" fill="black"/>
<rect width="46" height="46" transform="matrix(4.37114e-08 -1 -1 -4.37114e-08 46 322)" fill="white"/>
<rect width="46" height="46" transform="matrix(4.37114e-08 -1 -1 -4.37114e-08 46 230)" fill="white"/>
<rect width="46" height="46" transform="matrix(4.37114e-08 -1 -1 -4.37114e-08 46 138)" fill="white"/>
<rect width="46" height="46" transform="matrix(4.37114e-08 -1 -1 -4.37114e-08 46 46)" fill="white"/>
<rect x="92" width="46" height="46" transform="rotate(90 92 0)" fill="black"/>
<rect x="92" y="92" width="46" height="46" transform="rotate(90 92 92)" fill="black"/>
<rect x="92" y="184" width="46" height="46" transform="rotate(90 92 184)" fill="black"/>
<rect x="92" y="276" width="46" height="46" transform="rotate(90 92 276)" fill="black"/>
<rect x="92" y="46" width="46" height="46" transform="rotate(90 92 46)" fill="white"/>
<rect x="92" y="138" width="46" height="46" transform="rotate(90 92 138)" fill="white"/>
<rect x="92" y="230" width="46" height="46" transform="rotate(90 92 230)" fill="white"/>
<rect x="92" y="322" width="46" height="46" transform="rotate(90 92 322)" fill="white"/>
</svg>
