<svg width="72" height="72" viewBox="0 0 72 72" fill="none" xmlns="http://www.w3.org/2000/svg">
<circle cx="35.5" cy="35.5" r="33" fill="#3B82F7" stroke="white" stroke-width="5"/>
<path fill-rule="evenodd" clip-rule="evenodd" d="M35.6122 23.63V18ZM33.1122 20H38.1122Z" fill="white"/>
<path d="M35.6122 23.63V18M33.1122 20H38.1122" stroke="black" stroke-width="1.5" stroke-linecap="round"/>
<path fill-rule="evenodd" clip-rule="evenodd" d="M35.6122 37C35.6122 37 40.1122 29.5 38.6122 26.5C38.6122 26.5 37.6122 24 35.6122 24C33.6122 24 32.6122 26.5 32.6122 26.5C31.1122 29.5 35.6122 37 35.6122 37Z" fill="white" stroke="black" stroke-width="1.5"/>
<path fill-rule="evenodd" clip-rule="evenodd" d="M25.6122 49C31.1122 52.5 40.1122 52.5 45.6122 49V42C45.6122 42 54.6122 37.5 51.6122 31.5C47.6122 25 38.1122 28 35.6122 35.5C33.1122 28 23.6122 25 19.6122 31.5C16.6122 37.5 25.6122 42 25.6122 42V49Z" fill="white"/>
<path d="M35.6122 35.5C38.1122 28 47.6122 25 51.6122 31.5C54.6122 37.5 45.6122 42 45.6122 42V49C40.1122 52.5 31.1122 52.5 25.6122 49V42C25.6122 42 16.6122 37.5 19.6122 31.5C23.6122 25 33.1122 28 35.6122 35.5ZM35.6122 35.5V39" stroke="black" stroke-width="1.5" stroke-linecap="round" stroke-linejoin="round"/>
<path fill-rule="evenodd" clip-rule="evenodd" d="M25.6122 42C31.1122 39 40.1122 39 45.6122 42ZM25.6122 45.5C31.1122 42.5 40.1122 42.5 45.6122 45.5ZM25.6122 49C31.1122 46 40.1122 46 45.6122 49Z" fill="white"/>
<path d="M25.6122 42C31.1122 39 40.1122 39 45.6122 42M25.6122 45.5C31.1122 42.5 40.1122 42.5 45.6122 45.5M25.6122 49C31.1122 46 40.1122 46 45.6122 49" stroke="black" stroke-width="1.5" stroke-linecap="round" stroke-linejoin="round"/>
</svg>
