<svg width="19" height="24" viewBox="0 0 19 24" fill="none" xmlns="http://www.w3.org/2000/svg">
<g clip-path="url(#clip0_114_50)">
<g clip-path="url(#clip1_114_50)">
<path d="M4.92031 10.493L6.03761 10.493L6.23784 11.4841L5.17644 11.4841L4.92031 10.493Z" fill="black"/>
<path d="M6.26463 11.4841L7.35279 11.4841L7.36721 11.4841L7.48127 12.3882L7.46963 12.3882L6.43987 12.3882L6.4205 12.3882L6.23784 11.4841L6.26463 11.4841Z" fill="black"/>
<path fill-rule="evenodd" clip-rule="evenodd" d="M8.37694 10.493L7.24218 10.493L7.36721 11.4841L8.44066 11.4841L8.37694 10.493ZM8.49878 12.3882L8.49938 12.3882L9.52914 12.3882L9.52914 11.4841L8.44098 11.4841L8.44066 11.4841L8.49878 12.3882ZM8.55018 13.1881L8.49878 12.3882L7.48127 12.3882L7.58219 13.1881L8.55018 13.1881ZM8.59825 13.9358L8.59937 13.9358L9.52914 13.9358L9.52914 13.1881L8.55105 13.1881L8.55018 13.1881L8.59825 13.9358ZM8.63848 14.5617L8.59825 13.9358L7.6765 13.9358L7.75549 14.5617L8.63848 14.5617ZM8.67759 15.1703L8.67912 15.1703L9.52914 15.1703L9.52914 14.5617L8.63982 14.5617L8.63848 14.5617L8.67759 15.1703ZM7.83224 15.1703L7.75549 14.5617L7.75047 14.5617L6.86114 14.5617L6.85961 14.5617L6.98254 15.1703L7.82913 15.1703L7.83224 15.1703ZM7.90901 15.7789L7.83224 15.1703L8.67759 15.1703L8.71673 15.7789L8.71845 15.7789L9.52914 15.7789L9.52914 16.1962L8.74355 16.1962L8.71673 15.7789L7.90901 15.7789ZM7.90901 15.7789L7.96167 16.1962L7.18982 16.1962L7.10551 15.7789L7.09704 15.7789L6.28635 15.7789L6.12908 15.1703L6.9791 15.1703L6.98254 15.1703L7.10551 15.7789L7.90776 15.7789L7.90901 15.7789ZM6.73315 13.9358L5.81004 13.9358L5.97181 14.5617L6.85961 14.5617L6.73315 13.9358ZM6.58209 13.1881L6.73315 13.9358L6.73982 13.9358L7.66959 13.9358L7.6765 13.9358L7.58219 13.1881L7.57299 13.1881L6.5949 13.1881L6.58209 13.1881ZM6.58209 13.1881L6.4205 12.3882L5.4101 12.3882L5.6168 13.1881L6.58209 13.1881Z" fill="black"/>
<path d="M9.52915 10.493L9.52915 11.4841L10.6173 11.4841L10.6176 11.4841L10.6814 10.493L9.52915 10.493Z" fill="black"/>
<path d="M9.52915 12.3883L9.52915 13.1881L10.5072 13.1881L10.5081 13.1881L10.5595 12.3883L10.5589 12.3883L9.52915 12.3883Z" fill="black"/>
<path d="M9.52915 13.9357L9.52915 14.5617L10.4185 14.5617L10.4198 14.5617L10.46 13.9357L10.4589 13.9357L9.52915 13.9357Z" fill="black"/>
<path d="M9.52915 15.1703L9.52915 15.7789L10.3398 15.7789L10.3416 15.7789L10.3807 15.1703L10.3792 15.1703L9.52915 15.1703Z" fill="black"/>
<path d="M10.3147 16.1962L11.0966 16.1962L11.1493 15.7789L10.3416 15.7789L10.3147 16.1962Z" fill="black"/>
<path d="M10.3807 15.1703L11.2261 15.1703L11.3028 14.5617L10.4198 14.5617L10.3807 15.1703Z" fill="black"/>
<path d="M11.4761 13.1881L10.5081 13.1881L10.46 13.9358L11.3818 13.9358L11.4761 13.1881Z" fill="black"/>
<path d="M11.577 12.3882L11.6911 11.4841L10.6176 11.4841L10.5595 12.3882L11.577 12.3882Z" fill="black"/>
<path d="M13.0207 10.493L11.8161 10.493L11.6911 11.4841L11.7055 11.4841L12.7937 11.4841L12.8205 11.4841L13.0207 10.493Z" fill="black"/>
<path d="M12.6184 12.3883L11.5887 12.3883L11.577 12.3883L11.4761 13.1881L11.4853 13.1881L12.4634 13.1881L12.4762 13.1881L12.6378 12.3883L12.6184 12.3883Z" fill="black"/>
<path d="M12.3185 13.9357L11.3887 13.9357L11.3818 13.9357L11.3028 14.5617L11.3078 14.5617L12.1972 14.5617L12.1987 14.5617L12.3251 13.9357L12.3185 13.9357Z" fill="black"/>
<path d="M11.1506 15.7789L11.9528 15.7789L12.0757 15.1703L11.2292 15.1703L11.226 15.1703L11.1493 15.7789L11.1506 15.7789Z" fill="black"/>
<path d="M11.8685 16.1962L12.6641 16.1962L12.7719 15.7789L11.9612 15.7789L11.9528 15.7789L11.8685 16.1962Z" fill="black"/>
<path d="M12.9292 15.1703L13.0865 14.5617L12.1987 14.5617L12.0757 15.1703L12.0792 15.1703L12.9292 15.1703Z" fill="black"/>
<path d="M13.2483 13.9358L13.4415 13.1881L12.4762 13.1881L12.3252 13.9358L13.2483 13.9358Z" fill="black"/>
<path d="M13.6482 12.3882L13.8819 11.4841L12.8205 11.4841L12.6378 12.3882L13.6482 12.3882Z" fill="black"/>
<path d="M14.138 10.493L13.0207 10.493L12.8205 11.4841L13.8819 11.4841L14.138 10.493Z" fill="white"/>
<path d="M12.7937 11.4841L11.7055 11.4841L11.6911 11.4841L11.577 12.3882L11.5887 12.3882L12.6184 12.3882L12.6378 12.3882L12.8205 11.4841L12.7937 11.4841Z" fill="white"/>
<path fill-rule="evenodd" clip-rule="evenodd" d="M10.6814 10.493L11.8161 10.493L11.6911 11.4841L10.6176 11.4841L10.6814 10.493ZM10.5595 12.3882L10.5589 12.3882L9.52914 12.3882L9.52914 11.4841L10.6173 11.4841L10.6176 11.4841L10.5595 12.3882ZM10.5081 13.1881L10.5595 12.3882L11.577 12.3882L11.4761 13.1881L10.5081 13.1881ZM10.46 13.9358L10.4589 13.9358L9.52914 13.9358L9.52914 13.1881L10.5072 13.1881L10.5081 13.1881L10.46 13.9358ZM10.4198 14.5617L10.46 13.9358L11.3818 13.9358L11.3028 14.5617L10.4198 14.5617ZM10.3807 15.1703L10.3792 15.1703L9.52914 15.1703L9.52914 14.5617L10.4185 14.5617L10.4198 14.5617L10.3807 15.1703ZM11.226 15.1703L11.3028 14.5617L11.3078 14.5617L12.1972 14.5617L12.1987 14.5617L12.0757 15.1703L11.2292 15.1703L11.226 15.1703ZM11.1493 15.7789L11.226 15.1703L10.3807 15.1703L10.3416 15.7789L10.3398 15.7789L9.52914 15.7789L9.52914 16.1962L10.3147 16.1962L10.3416 15.7789L11.1493 15.7789ZM11.1493 15.7789L11.0966 16.1962L11.8685 16.1962L11.9528 15.7789L11.9612 15.7789L12.7719 15.7789L12.9292 15.1703L12.0792 15.1703L12.0757 15.1703L11.9528 15.7789L11.1506 15.7789L11.1493 15.7789ZM12.3251 13.9358L13.2483 13.9358L13.0865 14.5617L12.1987 14.5617L12.3251 13.9358ZM12.4762 13.1881L12.3251 13.9358L12.3185 13.9358L11.3887 13.9358L11.3818 13.9358L11.4761 13.1881L11.4853 13.1881L12.4634 13.1881L12.4762 13.1881ZM12.4762 13.1881L12.6378 12.3882L13.6482 12.3882L13.4415 13.1881L12.4762 13.1881Z" fill="white"/>
<path d="M9.52914 10.493L9.52914 11.4841L8.44098 11.4841L8.44065 11.4841L8.37693 10.493L9.52914 10.493Z" fill="white"/>
<path d="M9.52914 12.3883L9.52914 13.1881L8.55105 13.1881L8.55018 13.1881L8.49878 12.3883L8.49938 12.3883L9.52914 12.3883Z" fill="white"/>
<path d="M9.52914 13.9357L9.52914 14.5617L8.63982 14.5617L8.63848 14.5617L8.59825 13.9357L8.59937 13.9357L9.52914 13.9357Z" fill="white"/>
<path d="M9.52914 15.1703L9.52914 15.7789L8.71845 15.7789L8.71673 15.7789L8.67759 15.1703L8.67912 15.1703L9.52914 15.1703Z" fill="white"/>
<path d="M8.74355 16.1962L7.96167 16.1962L7.90902 15.7789L8.71673 15.7789L8.74355 16.1962Z" fill="white"/>
<path d="M8.67759 15.1703L7.83224 15.1703L7.75549 14.5617L8.63848 14.5617L8.67759 15.1703Z" fill="white"/>
<path d="M7.58219 13.1881L8.55018 13.1881L8.59825 13.9358L7.67651 13.9358L7.58219 13.1881Z" fill="white"/>
<path d="M7.48127 12.3882L7.36722 11.4841L8.44066 11.4841L8.49878 12.3882L7.48127 12.3882Z" fill="white"/>
<path d="M6.03761 10.493L7.24218 10.493L7.36722 11.4841L7.3528 11.4841L6.26464 11.4841L6.23784 11.4841L6.03761 10.493Z" fill="white"/>
<path d="M6.43987 12.3883L7.46964 12.3883L7.48127 12.3883L7.58219 13.1881L7.57299 13.1881L6.5949 13.1881L6.58209 13.1881L6.4205 12.3883L6.43987 12.3883Z" fill="white"/>
<path d="M6.73982 13.9357L7.66959 13.9357L7.67651 13.9357L7.75549 14.5617L7.75047 14.5617L6.86114 14.5617L6.85961 14.5617L6.73315 13.9357L6.73982 13.9357Z" fill="white"/>
<path d="M7.90776 15.7789L7.10551 15.7789L6.98255 15.1703L7.82913 15.1703L7.83224 15.1703L7.90902 15.7789L7.90776 15.7789Z" fill="white"/>
<path d="M7.18982 16.1962L6.3942 16.1962L6.28635 15.7789L7.09704 15.7789L7.10551 15.7789L7.18982 16.1962Z" fill="white"/>
<path d="M6.12908 15.1703L5.97181 14.5617L6.85961 14.5617L6.98254 15.1703L6.9791 15.1703L6.12908 15.1703Z" fill="white"/>
<path d="M5.81004 13.9358L5.61681 13.1881L6.58209 13.1881L6.73315 13.9358L5.81004 13.9358Z" fill="white"/>
<path d="M5.41011 12.3882L5.17645 11.4841L6.23784 11.4841L6.42051 12.3882L5.41011 12.3882Z" fill="white"/>
</g>
<g clip-path="url(#clip2_114_50)">
<path d="M6.39762 16.2027L7.1553 16.2027L7.29108 16.8748L6.57132 16.8748L6.39762 16.2027Z" fill="black"/>
<path d="M7.30925 16.8748L8.04716 16.8748L8.05694 16.8748L8.13428 17.4879L8.12639 17.4879L7.42808 17.4879L7.41495 17.4879L7.29108 16.8748L7.30925 16.8748Z" fill="black"/>
<path fill-rule="evenodd" clip-rule="evenodd" d="M8.74165 16.2026L7.97214 16.2026L8.05694 16.8747L8.78486 16.8747L8.74165 16.2026ZM8.82428 17.4879L8.82468 17.4879L9.523 17.4879L9.523 16.8747L8.78508 16.8747L8.78486 16.8747L8.82428 17.4879ZM8.85913 18.0303L8.82428 17.4879L8.13428 17.4879L8.20272 18.0303L8.85913 18.0303ZM8.89173 18.5373L8.89249 18.5373L9.523 18.5373L9.523 18.0303L8.85973 18.0303L8.85913 18.0303L8.89173 18.5373ZM8.91901 18.9618L8.89173 18.5373L8.26667 18.5373L8.32024 18.9618L8.91901 18.9618ZM8.94554 19.3745L8.94657 19.3745L9.523 19.3745L9.523 18.9618L8.91992 18.9618L8.91901 18.9618L8.94554 19.3745ZM8.37228 19.3745L8.32024 18.9618L8.31683 18.9618L7.71375 18.9618L7.71272 18.9618L7.79608 19.3745L8.37017 19.3745L8.37228 19.3745ZM8.42434 19.7871L8.37228 19.3745L8.94554 19.3745L8.97208 19.7871L8.97324 19.7871L9.523 19.7871L9.52299 20.0701L8.99026 20.0701L8.97208 19.7871L8.42434 19.7871ZM8.42434 19.7871L8.46005 20.0701L7.93664 20.0701L7.87946 19.7871L7.87372 19.7871L7.32397 19.7871L7.21732 19.3745L7.79375 19.3745L7.79608 19.3745L7.87946 19.7871L8.42349 19.7871L8.42434 19.7871ZM7.62696 18.5373L7.00098 18.5373L7.11068 18.9618L7.71272 18.9618L7.62696 18.5373ZM7.52452 18.0303L7.62696 18.5373L7.63148 18.5373L8.26199 18.5373L8.26667 18.5373L8.20272 18.0303L8.19648 18.0303L7.53321 18.0303L7.52452 18.0303ZM7.52452 18.0303L7.41495 17.4879L6.72977 17.4879L6.86994 18.0303L7.52452 18.0303Z" fill="black"/>
<path d="M9.523 16.2027L9.523 16.8748L10.2609 16.8748L10.2611 16.8748L10.3043 16.2027L9.523 16.2027Z" fill="black"/>
<path d="M9.52361 17.4883L9.52361 18.0303L10.1863 18.0303L10.1869 18.0303L10.2217 17.4883L10.2213 17.4883L9.52361 17.4883Z" fill="black"/>
<path d="M9.52355 18.5377L9.52355 18.9618L10.1261 18.9618L10.127 18.9618L10.1543 18.5377L10.1535 18.5377L9.52355 18.5377Z" fill="black"/>
<path d="M9.5235 19.3748L9.5235 19.7871L10.0728 19.7871L10.0739 19.7871L10.1005 19.3748L10.0994 19.3748L9.5235 19.3748Z" fill="black"/>
<path d="M10.0562 20.0701L10.586 20.0701L10.6217 19.7874L10.0744 19.7874L10.0562 20.0701Z" fill="black"/>
<path d="M10.101 19.3745L10.6738 19.3745L10.7258 18.9621L10.1275 18.9621L10.101 19.3745Z" fill="black"/>
<path d="M10.8433 18.0307L10.1874 18.0307L10.1549 18.5373L10.7794 18.5373L10.8433 18.0307Z" fill="black"/>
<path d="M10.9117 17.4879L10.9891 16.8748L10.2611 16.8748L10.2217 17.4879L10.9117 17.4879Z" fill="black"/>
<path d="M11.8907 16.2027L11.0738 16.2027L10.9891 16.8748L10.9988 16.8748L11.7368 16.8748L11.7549 16.8748L11.8907 16.2027Z" fill="black"/>
<path d="M11.6179 17.4879L10.9196 17.4879L10.9117 17.4879L10.8433 18.0303L10.8495 18.0303L11.5128 18.0303L11.5215 18.0303L11.6311 17.4879L11.6179 17.4879Z" fill="black"/>
<path d="M11.4145 18.5377L10.7846 18.5377L10.7799 18.5377L10.7264 18.9618L10.7298 18.9618L11.3323 18.9618L11.3334 18.9618L11.419 18.5377L11.4145 18.5377Z" fill="black"/>
<path d="M10.6231 19.7871L11.1666 19.7871L11.2499 19.3748L10.6763 19.3748L10.6742 19.3748L10.6222 19.7871L10.6231 19.7871Z" fill="black"/>
<path d="M11.1099 20.0701L11.649 20.0701L11.722 19.7874L11.1727 19.7874L11.167 19.7874L11.1099 20.0701Z" fill="black"/>
<path d="M11.8288 19.3745L11.9353 18.9621L11.3338 18.9621L11.2505 19.3745L11.2529 19.3745L11.8288 19.3745Z" fill="black"/>
<path d="M12.045 18.5373L12.1761 18.0303L11.5215 18.0303L11.419 18.5373L12.045 18.5373Z" fill="black"/>
<path d="M12.3162 17.4879L12.4747 16.8748L11.7549 16.8748L11.631 17.4879L12.3162 17.4879Z" fill="black"/>
<path d="M12.6484 16.2027L11.8907 16.2027L11.7549 16.8748L12.4747 16.8748L12.6484 16.2027Z" fill="white"/>
<path d="M11.7368 16.8748L10.9988 16.8748L10.9891 16.8748L10.9117 17.4879L10.9196 17.4879L11.6179 17.4879L11.631 17.4879L11.7549 16.8748L11.7368 16.8748Z" fill="white"/>
<path fill-rule="evenodd" clip-rule="evenodd" d="M10.3043 16.2026L11.0738 16.2026L10.9891 16.8747L10.2611 16.8747L10.3043 16.2026ZM10.2217 17.4879L10.2213 17.4879L9.523 17.4879L9.523 16.8747L10.2609 16.8747L10.2611 16.8747L10.2217 17.4879ZM10.1869 18.0303L10.2217 17.4879L10.9117 17.4879L10.8433 18.0303L10.1869 18.0303ZM10.1543 18.5373L10.1535 18.5373L9.523 18.5373L9.523 18.0303L10.1863 18.0303L10.1869 18.0303L10.1543 18.5373ZM10.127 18.9618L10.1543 18.5373L10.7793 18.5373L10.7258 18.9618L10.127 18.9618ZM10.1005 19.3745L10.0994 19.3745L9.523 19.3745L9.523 18.9618L10.1261 18.9618L10.127 18.9618L10.1005 19.3745ZM10.6737 19.3745L10.7258 18.9618L10.7292 18.9618L11.3322 18.9618L11.3333 18.9618L11.2499 19.3745L10.6758 19.3745L10.6737 19.3745ZM10.6216 19.7871L10.6737 19.3745L10.1005 19.3745L10.0739 19.7871L10.0727 19.7871L9.523 19.7871L9.523 20.0701L10.0557 20.0701L10.0739 19.7871L10.6216 19.7871ZM10.6216 19.7871L10.5859 20.0701L11.1094 20.0701L11.1665 19.7871L11.1723 19.7871L11.722 19.7871L11.8287 19.3745L11.2523 19.3745L11.2499 19.3745L11.1665 19.7871L10.6225 19.7871L10.6216 19.7871ZM11.419 18.5373L12.045 18.5373L11.9353 18.9618L11.3333 18.9618L11.419 18.5373ZM11.5215 18.0303L11.419 18.5373L11.4145 18.5373L10.784 18.5373L10.7793 18.5373L10.8433 18.0303L10.8495 18.0303L11.5128 18.0303L11.5215 18.0303ZM11.5215 18.0303L11.631 17.4879L12.3162 17.4879L12.1761 18.0303L11.5215 18.0303Z" fill="white"/>
<path d="M9.523 16.2027L9.52299 16.8748L8.78508 16.8748L8.78486 16.8748L8.74165 16.2027L9.523 16.2027Z" fill="white"/>
<path d="M9.523 17.4883L9.52299 18.0303L8.86031 18.0303L8.85971 18.0303L8.82489 17.4883L8.8253 17.4883L9.523 17.4883Z" fill="white"/>
<path d="M9.523 18.5377L9.52299 18.9618L8.92045 18.9618L8.91954 18.9618L8.89228 18.5377L8.89304 18.5377L9.523 18.5377Z" fill="white"/>
<path d="M9.523 19.3748L9.52299 19.7871L8.97373 19.7871L8.97256 19.7871L8.94604 19.3748L8.94708 19.3748L9.523 19.3748Z" fill="white"/>
<path d="M8.99026 20.0701L8.46052 20.0701L8.42484 19.7874L8.97209 19.7874L8.99026 20.0701Z" fill="white"/>
<path d="M8.94553 19.3745L8.37278 19.3745L8.32078 18.9621L8.91903 18.9621L8.94553 19.3745Z" fill="white"/>
<path d="M8.20332 18.0307L8.85916 18.0307L8.89173 18.5373L8.26722 18.5373L8.20332 18.0307Z" fill="white"/>
<path d="M8.13428 17.4879L8.05694 16.8748L8.78487 16.8748L8.82428 17.4879L8.13428 17.4879Z" fill="white"/>
<path d="M7.1553 16.2027L7.97215 16.2027L8.05694 16.8748L8.04716 16.8748L7.30925 16.8748L7.29108 16.8748L7.1553 16.2027Z" fill="white"/>
<path d="M7.42808 17.4879L8.12639 17.4879L8.13428 17.4879L8.20272 18.0303L8.19648 18.0303L7.53321 18.0303L7.52452 18.0303L7.41495 17.4879L7.42808 17.4879Z" fill="white"/>
<path d="M7.63209 18.5377L8.26204 18.5377L8.26672 18.5377L8.32024 18.9618L8.31683 18.9618L7.71428 18.9618L7.71325 18.9618L7.62757 18.5377L7.63209 18.5377Z" fill="white"/>
<path d="M8.4235 19.7871L7.87994 19.7871L7.79663 19.3748L8.37022 19.3748L8.37233 19.3748L8.42435 19.7871L8.4235 19.7871Z" fill="white"/>
<path d="M7.93664 20.0701L7.39758 20.0701L7.32451 19.7874L7.87378 19.7874L7.87951 19.7874L7.93664 20.0701Z" fill="white"/>
<path d="M7.21783 19.3745L7.11128 18.9621L7.71279 18.9621L7.79608 19.3745L7.79375 19.3745L7.21783 19.3745Z" fill="white"/>
<path d="M7.00098 18.5373L6.86994 18.0303L7.52452 18.0303L7.62696 18.5373L7.00098 18.5373Z" fill="white"/>
<path d="M6.72977 17.4879L6.57132 16.8748L7.29108 16.8748L7.41495 17.4879L6.72977 17.4879Z" fill="white"/>
</g>
<g clip-path="url(#clip3_114_50)">
<path d="M7.40243 20.0744L7.91549 20.0744L8.00744 20.5295L7.52005 20.5295L7.40243 20.0744Z" fill="black"/>
<path d="M8.01974 20.5295L8.51942 20.5295L8.52604 20.5295L8.57841 20.9447L8.57307 20.9447L8.10021 20.9447L8.09132 20.9447L8.00744 20.5295L8.01974 20.5295Z" fill="black"/>
<path fill-rule="evenodd" clip-rule="evenodd" d="M8.9897 20.0744L8.46863 20.0744L8.52604 20.5295L9.01896 20.5295L8.9897 20.0744ZM9.04565 20.9447L9.04593 20.9447L9.51879 20.9447L9.51879 20.5295L9.01911 20.5295L9.01896 20.5295L9.04565 20.9447ZM9.06925 21.312L9.04565 20.9447L8.57842 20.9447L8.62476 21.312L9.06925 21.312ZM9.09133 21.6553L9.09184 21.6553L9.51879 21.6553L9.51879 21.312L9.06966 21.312L9.06925 21.312L9.09133 21.6553ZM9.1098 21.9428L9.09133 21.6553L8.66807 21.6553L8.70434 21.9428L9.1098 21.9428ZM9.12776 22.2222L9.12846 22.2222L9.51879 22.2222L9.51879 21.9428L9.11042 21.9428L9.1098 21.9428L9.12776 22.2222ZM8.73958 22.2222L8.70434 21.9428L8.70203 21.9428L8.29365 21.9428L8.29295 21.9428L8.3494 22.2222L8.73815 22.2222L8.73958 22.2222ZM8.77483 22.5017L8.73958 22.2222L9.12776 22.2222L9.14573 22.5017L9.14652 22.5017L9.51879 22.5017L9.51879 22.6933L9.15805 22.6933L9.14573 22.5017L8.77483 22.5017ZM8.77483 22.5017L8.79902 22.6933L8.44458 22.6933L8.40587 22.5017L8.40198 22.5017L8.02971 22.5017L7.9575 22.2222L8.34782 22.2222L8.3494 22.2222L8.40587 22.5017L8.77426 22.5017L8.77483 22.5017ZM8.23488 21.6553L7.811 21.6553L7.88528 21.9428L8.29295 21.9428L8.23488 21.6553ZM8.16552 21.312L8.23488 21.6553L8.23794 21.6553L8.66489 21.6553L8.66807 21.6553L8.62476 21.312L8.62053 21.312L8.1714 21.312L8.16552 21.312ZM8.16552 21.312L8.09132 20.9447L7.62735 20.9447L7.72226 21.312L8.16552 21.312Z" fill="black"/>
<path d="M9.5181 20.0738L9.5181 20.5295L10.0184 20.5295L10.0186 20.5295L10.0479 20.0738L9.5181 20.0738Z" fill="black"/>
<path d="M9.51859 20.9446L9.51859 21.312L9.96791 21.312L9.96831 21.312L9.99193 20.9446L9.99165 20.9446L9.51859 20.9446Z" fill="black"/>
<path d="M9.51861 21.6552L9.51861 21.9428L9.92715 21.9428L9.92777 21.9428L9.94625 21.6552L9.94574 21.6552L9.51861 21.6552Z" fill="black"/>
<path d="M9.51863 22.2221L9.51863 22.5017L9.89105 22.5017L9.89184 22.5017L9.90982 22.2221L9.90912 22.2221L9.51863 22.2221Z" fill="black"/>
<path d="M9.87937 22.6933L10.2386 22.6933L10.2627 22.5016L9.89169 22.5016L9.87937 22.6933Z" fill="black"/>
<path d="M9.90964 22.2222L10.298 22.2222L10.3333 21.9427L9.92761 21.9427L9.90964 22.2222Z" fill="black"/>
<path d="M10.4128 21.3119L9.96814 21.3119L9.94606 21.6553L10.3695 21.6553L10.4128 21.3119Z" fill="black"/>
<path d="M10.4591 20.9447L10.5115 20.529L10.018 20.529L9.99126 20.9447L10.4591 20.9447Z" fill="black"/>
<path d="M11.1221 20.0744L10.569 20.0744L10.5115 20.5295L10.5182 20.5295L11.0178 20.5295L11.0301 20.5295L11.1221 20.0744Z" fill="black"/>
<path d="M10.9374 20.9442L10.4639 20.9442L10.4585 20.9442L10.4121 21.312L10.4164 21.312L10.8661 21.312L10.872 21.312L10.9463 20.9442L10.9374 20.9442Z" fill="black"/>
<path d="M10.7996 21.6552L10.3725 21.6552L10.3693 21.6552L10.3331 21.9428L10.3354 21.9428L10.7439 21.9428L10.7446 21.9428L10.8027 21.6552L10.7996 21.6552Z" fill="black"/>
<path d="M10.2632 22.5017L10.6317 22.5017L10.6882 22.2221L10.2993 22.2221L10.2978 22.2221L10.2626 22.5017L10.2632 22.5017Z" fill="black"/>
<path d="M10.5928 22.6933L10.9583 22.6933L11.0079 22.5016L10.6354 22.5016L10.6316 22.5016L10.5928 22.6933Z" fill="black"/>
<path d="M11.0801 22.2222L11.1523 21.9427L10.7445 21.9427L10.688 22.2222L10.6896 22.2222L11.0801 22.2222Z" fill="black"/>
<path d="M11.2265 21.6553L11.3153 21.3116L10.8715 21.3116L10.802 21.6553L11.2265 21.6553Z" fill="black"/>
<path d="M11.4102 20.9447L11.5175 20.5295L11.0301 20.5295L10.9463 20.9447L11.4102 20.9447Z" fill="black"/>
<path d="M11.6351 20.0744L11.1221 20.0744L11.0301 20.5295L11.5175 20.5295L11.6351 20.0744Z" fill="white"/>
<path d="M11.0178 20.5295L10.5182 20.5295L10.5115 20.5295L10.4592 20.9447L10.4645 20.9447L10.9374 20.9447L10.9463 20.9447L11.0301 20.5295L11.0178 20.5295Z" fill="white"/>
<path fill-rule="evenodd" clip-rule="evenodd" d="M10.0479 20.0744L10.569 20.0744L10.5115 20.5295L10.0186 20.5295L10.0479 20.0744ZM9.99193 20.9447L9.99165 20.9447L9.51879 20.9447L9.51879 20.5295L10.0185 20.5295L10.0186 20.5295L9.99193 20.9447ZM9.96832 21.312L9.99193 20.9447L10.4592 20.9447L10.4128 21.312L9.96832 21.312ZM9.94625 21.6553L9.94574 21.6553L9.51879 21.6553L9.51879 21.312L9.96792 21.312L9.96832 21.312L9.94625 21.6553ZM9.92778 21.9428L9.94625 21.6553L10.3695 21.6553L10.3333 21.9428L9.92778 21.9428ZM9.90982 22.2222L9.90911 22.2222L9.51879 22.2222L9.51879 21.9428L9.92716 21.9428L9.92778 21.9428L9.90982 22.2222ZM10.298 22.2222L10.3333 21.9428L10.3355 21.9428L10.7439 21.9428L10.7446 21.9428L10.6882 22.2222L10.2994 22.2222L10.298 22.2222ZM10.2627 22.5017L10.298 22.2222L9.90982 22.2222L9.89184 22.5017L9.89105 22.5017L9.51879 22.5017L9.51879 22.6933L9.87953 22.6933L9.89184 22.5017L10.2627 22.5017ZM10.2627 22.5017L10.2386 22.6933L10.593 22.6933L10.6317 22.5017L10.6356 22.5017L11.0079 22.5017L11.0801 22.2222L10.6898 22.2222L10.6882 22.2222L10.6317 22.5017L10.2633 22.5017L10.2627 22.5017ZM10.8027 21.6553L11.2266 21.6553L11.1523 21.9428L10.7446 21.9428L10.8027 21.6553ZM10.8721 21.312L10.8027 21.6553L10.7996 21.6553L10.3727 21.6553L10.3695 21.6553L10.4128 21.312L10.4171 21.312L10.8662 21.312L10.8721 21.312ZM10.8721 21.312L10.9463 20.9447L11.4102 20.9447L11.3153 21.312L10.8721 21.312Z" fill="white"/>
<path d="M9.51879 20.0738L9.51879 20.5295L9.01847 20.5295L9.01831 20.5295L8.98902 20.0738L9.51879 20.0738Z" fill="white"/>
<path d="M9.51879 20.9446L9.51879 21.312L9.06947 21.312L9.06907 21.312L9.04545 20.9446L9.04573 20.9446L9.51879 20.9446Z" fill="white"/>
<path d="M9.51879 21.6552L9.51879 21.9428L9.11025 21.9428L9.10963 21.9428L9.09115 21.6552L9.09166 21.6552L9.51879 21.6552Z" fill="white"/>
<path d="M9.51879 22.2221L9.51879 22.5017L9.14637 22.5017L9.14558 22.5017L9.1276 22.2221L9.1283 22.2221L9.51879 22.2221Z" fill="white"/>
<path d="M9.15805 22.6933L8.79887 22.6933L8.77468 22.5016L9.14573 22.5016L9.15805 22.6933Z" fill="white"/>
<path d="M9.12776 22.2222L8.73942 22.2222L8.70416 21.9427L9.10979 21.9427L9.12776 22.2222Z" fill="white"/>
<path d="M8.62456 21.3119L9.06924 21.3119L9.09132 21.6553L8.66789 21.6553L8.62456 21.3119Z" fill="white"/>
<path d="M8.57781 20.9447L8.52537 20.529L9.01892 20.529L9.04565 20.9447L8.57781 20.9447Z" fill="white"/>
<path d="M7.91549 20.0744L8.46862 20.0744L8.52604 20.5295L8.51942 20.5295L8.01974 20.5295L8.00743 20.5295L7.91549 20.0744Z" fill="white"/>
<path d="M8.09953 20.9442L8.573 20.9442L8.57835 20.9442L8.62476 21.312L8.62052 21.312L8.17081 21.312L8.16492 21.312L8.09062 20.9442L8.09953 20.9442Z" fill="white"/>
<path d="M8.23774 21.6552L8.66487 21.6552L8.66804 21.6552L8.70433 21.9428L8.70202 21.9428L8.29348 21.9428L8.29277 21.9428L8.23468 21.6552L8.23774 21.6552Z" fill="white"/>
<path d="M8.77426 22.5017L8.40571 22.5017L8.34922 22.2221L8.73813 22.2221L8.73956 22.2221L8.77483 22.5017L8.77426 22.5017Z" fill="white"/>
<path d="M8.44458 22.6933L8.07908 22.6933L8.02954 22.5016L8.40196 22.5016L8.40585 22.5016L8.44458 22.6933Z" fill="white"/>
<path d="M7.95733 22.2222L7.88509 21.9427L8.29293 21.9427L8.3494 22.2222L8.34782 22.2222L7.95733 22.2222Z" fill="white"/>
<path d="M7.81044 21.6553L7.72159 21.3116L8.16542 21.3116L8.23488 21.6553L7.81044 21.6553Z" fill="white"/>
<path d="M7.62734 20.9447L7.52005 20.5295L8.00744 20.5295L8.09132 20.9447L7.62734 20.9447Z" fill="white"/>
</g>
<path d="M14.8639 10.6576L15.1079 9.71888L14.138 9.71888L4.86201 9.71888L3.89043 9.71887L4.13646 10.6588L7.34225 22.906L7.48886 23.466L8.06781 23.466L10.9536 23.466L11.5336 23.466L11.6795 22.9048L14.8639 10.6576Z" stroke="black" stroke-width="1.5"/>
<path d="M2.1991 10.3728L1.96263 11.3069H2.92616H16.0738H17.0492L16.7987 10.3642L14.6332 2.21779L14.485 1.66046H13.9083H4.98854H4.40476L4.26148 2.22639L2.1991 10.3728Z" stroke="black" stroke-width="1.5"/>
<g clip-path="url(#clip4_114_50)">
<path d="M16.0054 10.5642H14.4218L14.138 9.15936H15.6424L16.0054 10.5642Z" fill="black"/>
<path d="M14.1 9.15934H12.5577H12.5372L12.3755 7.87781H12.392H13.8516H13.8791L14.138 9.15934H14.1Z" fill="black"/>
<path fill-rule="evenodd" clip-rule="evenodd" d="M11.106 10.5642H12.7144L12.5372 9.15935H11.0157L11.106 10.5642ZM10.9334 7.87782H10.9325H9.47292V9.15935H11.0153H11.0157L10.9334 7.87782ZM10.8605 6.74411L10.9334 7.87782H12.3756L12.2325 6.74411H10.8605ZM10.7924 5.68438H10.7908H9.47292V6.74411H10.8593H10.8605L10.7924 5.68438ZM10.7353 4.79715L10.7924 5.68438H12.0988L11.9869 4.79715H10.7353ZM10.6799 3.93457H10.6777H9.47292V4.79715H10.7334H10.7353L10.6799 3.93457ZM11.8781 3.93457L11.9869 4.79715H11.994H13.2545H13.2567L13.0824 3.93457H11.8825H11.8781ZM11.7693 3.07199L11.8781 3.93457H10.6799L10.6244 3.07199H10.622H9.47292V2.4805H10.5864L10.6244 3.07199H11.7693ZM11.7693 3.07199L11.6946 2.4805H12.7887L12.9082 3.07199H12.9202H14.0692L14.2921 3.93457H13.0873H13.0824L12.9082 3.07199H11.7711H11.7693ZM13.4359 5.68438H14.7443L14.515 4.79715H13.2567L13.4359 5.68438ZM13.65 6.74411L13.4359 5.68438H13.4265H12.1086H12.0988L12.2325 6.74411H12.2456H13.6319H13.65ZM13.65 6.74411L13.8791 7.87782H15.3112L15.0182 6.74411H13.65Z" fill="black"/>
<path d="M9.47291 10.5642V9.15936H7.93052H7.9301L7.83978 10.5642H9.47291Z" fill="black"/>
<path d="M9.47292 7.87782V6.74411H8.08658H8.08534L8.01248 7.87782H8.01333H9.47292Z" fill="black"/>
<path d="M9.47292 5.68438V4.79715H8.21239H8.2105L8.15347 5.68438H8.15506H9.47292Z" fill="black"/>
<path d="M9.47291 3.93457V3.07199H8.32384H8.32141L8.26593 3.93457H8.2681H9.47291Z" fill="black"/>
<path d="M8.35942 2.4805H7.2512L7.17656 3.07199H8.32141L8.35942 2.4805Z" fill="black"/>
<path d="M8.26593 3.93457H7.06774L6.95892 4.79716H8.2105L8.26593 3.93457Z" fill="black"/>
<path d="M6.71331 6.74412H8.08534L8.15347 5.68439H6.847L6.71331 6.74412Z" fill="black"/>
<path d="M6.57029 7.87781L6.40862 9.15934H7.9301L8.01248 7.87781H6.57029Z" fill="black"/>
<path d="M4.52403 10.5642H6.23139L6.40861 9.15936H6.38817H4.8458H4.80784L4.52403 10.5642Z" fill="black"/>
<path d="M5.09419 7.87782H6.55377H6.57029L6.71331 6.74411H6.70026H5.31393H5.29579L5.06675 7.87782H5.09419Z" fill="black"/>
<path d="M5.51933 5.68438H6.8372H6.847L6.95891 4.79715H6.95183H5.6913H5.68913L5.50988 5.68438H5.51933Z" fill="black"/>
<path d="M7.17474 3.07199H6.03766L5.8634 3.93457H7.06329H7.06774L7.17656 3.07199H7.17474Z" fill="black"/>
<path d="M6.15716 2.4805H5.02946L4.8766 3.07199H6.02568H6.03766L6.15716 2.4805Z" fill="black"/>
<path d="M4.65368 3.93457L4.43076 4.79716H5.68913L5.8634 3.93457H5.85849H4.65368Z" fill="black"/>
<path d="M4.20148 5.68439L3.9276 6.74412H5.29579L5.50988 5.68439H4.20148Z" fill="black"/>
<path d="M3.63462 7.87781L3.30343 9.15934H4.80784L5.06675 7.87781H3.63462Z" fill="black"/>
<path d="M2.94039 10.5642H4.52403L4.80784 9.15936H3.30343L2.94039 10.5642Z" fill="white"/>
<path d="M4.8458 9.15934H6.38817H6.40861L6.57029 7.87781H6.55377H5.09419H5.06674L4.80783 9.15934H4.8458Z" fill="white"/>
<path fill-rule="evenodd" clip-rule="evenodd" d="M7.83978 10.5642H6.23139L6.40861 9.15935H7.9301L7.83978 10.5642ZM8.01248 7.87782H8.01333H9.47291V9.15935H7.93052H7.9301L8.01248 7.87782ZM8.08534 6.74411L8.01248 7.87782H6.57029L6.71331 6.74411H8.08534ZM8.15347 5.68438H8.15506H9.47291V6.74411H8.08658H8.08534L8.15347 5.68438ZM8.21049 4.79715L8.15347 5.68438H6.847L6.95891 4.79715H8.21049ZM8.26593 3.93457H8.2681H9.47291V4.79715H8.21239H8.21049L8.26593 3.93457ZM7.06774 3.93457L6.95891 4.79715H6.95183H5.6913H5.68913L5.8634 3.93457H7.06328H7.06774ZM7.17656 3.07199L7.06774 3.93457H8.26593L8.32141 3.07199H8.32384H9.47291V2.4805H8.35942L8.32141 3.07199H7.17656ZM7.17656 3.07199L7.25119 2.4805H6.15716L6.03766 3.07199H6.02568H4.8766L4.65368 3.93457H5.85849H5.8634L6.03766 3.07199H7.17474H7.17656ZM5.50988 5.68438H4.20147L4.43076 4.79715H5.68913L5.50988 5.68438ZM5.29578 6.74411L5.50988 5.68438H5.51933H6.8372H6.847L6.71331 6.74411H6.70026H5.31393H5.29578ZM5.29578 6.74411L5.06674 7.87782H3.63462L3.9276 6.74411H5.29578Z" fill="white"/>
<path d="M9.47292 10.5642V9.15936H11.0153H11.0157L11.106 10.5642H9.47292Z" fill="white"/>
<path d="M9.47292 7.87782V6.74411H10.8593H10.8605L10.9333 7.87782H10.9325H9.47292Z" fill="white"/>
<path d="M9.47292 5.68438V4.79715H10.7334H10.7353L10.7924 5.68438H10.7908H9.47292Z" fill="white"/>
<path d="M9.47292 3.93457V3.07199H10.622H10.6244L10.6799 3.93457H10.6777H9.47292Z" fill="white"/>
<path d="M10.5864 2.4805H11.6946L11.7693 3.07199H10.6244L10.5864 2.4805Z" fill="white"/>
<path d="M10.6799 3.93457H11.8781L11.9869 4.79716H10.7353L10.6799 3.93457Z" fill="white"/>
<path d="M12.2325 6.74412H10.8605L10.7924 5.68439H12.0988L12.2325 6.74412Z" fill="white"/>
<path d="M12.3756 7.87781L12.5372 9.15934H11.0157L10.9333 7.87781H12.3756Z" fill="white"/>
<path d="M14.4218 10.5642H12.7144L12.5372 9.15936H12.5577H14.1H14.138L14.4218 10.5642Z" fill="white"/>
<path d="M13.8516 7.87782H12.392H12.3755L12.2325 6.74411H12.2456H13.6319H13.65L13.8791 7.87782H13.8516Z" fill="white"/>
<path d="M13.4265 5.68438H12.1086H12.0988L11.9869 4.79715H11.994H13.2545H13.2567L13.4359 5.68438H13.4265Z" fill="white"/>
<path d="M11.7711 3.07199H12.9082L13.0824 3.93457H11.8825H11.8781L11.7693 3.07199H11.7711Z" fill="white"/>
<path d="M12.7887 2.4805H13.9163L14.0692 3.07199H12.9202H12.9082L12.7887 2.4805Z" fill="white"/>
<path d="M14.2921 3.93457L14.515 4.79716H13.2567L13.0824 3.93457H13.0873H14.2921Z" fill="white"/>
<path d="M14.7443 5.68439L15.0182 6.74412H13.65L13.4359 5.68439H14.7443Z" fill="white"/>
<path d="M15.3112 7.87781L15.6424 9.15934H14.138L13.8791 7.87781H15.3112Z" fill="white"/>
</g>
</g>
<defs>
<clipPath id="clip0_114_50">
<rect width="19" height="24" fill="white"/>
</clipPath>
<clipPath id="clip1_114_50">
<rect width="9.23166" height="5.71266" fill="white" transform="translate(14.138 16.1962) rotate(-180)"/>
</clipPath>
<clipPath id="clip2_114_50">
<rect width="6.26023" height="3.8739" fill="white" transform="translate(12.6484 20.0701) rotate(-180)"/>
</clipPath>
<clipPath id="clip3_114_50">
<rect width="4.23914" height="2.62323" fill="white" transform="translate(11.6351 22.6933) rotate(-180)"/>
</clipPath>
<clipPath id="clip4_114_50">
<rect width="13.0849" height="8.09708" fill="white" transform="translate(2.94039 2.4805)"/>
</clipPath>
</defs>
</svg>
