<svg width="92" height="92" viewBox="0 0 92 92" fill="none" xmlns="http://www.w3.org/2000/svg">
<g clip-path="url(#clip0_8_340)">
<rect x="7.5" y="7.5" width="77" height="77" stroke="#3B82F7" stroke-width="5"/>
<rect width="9" height="9" transform="matrix(-1 0 0 1 82 10)" fill="black"/>
<rect width="9" height="9" transform="matrix(-1 0 0 1 82 28)" fill="black"/>
<rect width="9" height="9" transform="matrix(-1 0 0 1 82 46)" fill="black"/>
<rect width="9" height="9" transform="matrix(-1 0 0 1 82 64)" fill="black"/>
<rect width="9" height="9" transform="matrix(-1 0 0 1 46 10)" fill="black"/>
<rect width="9" height="9" transform="matrix(-1 0 0 1 46 28)" fill="black"/>
<rect width="9" height="9" transform="matrix(-1 0 0 1 46 46)" fill="black"/>
<rect width="9" height="9" transform="matrix(-1 0 0 1 46 64)" fill="black"/>
<rect width="9" height="9" transform="matrix(-1 0 0 1 64 10)" fill="black"/>
<rect width="9" height="9" transform="matrix(-1 0 0 1 64 28)" fill="black"/>
<rect width="9" height="9" transform="matrix(-1 0 0 1 64 46)" fill="black"/>
<rect width="9" height="9" transform="matrix(-1 0 0 1 64 64)" fill="black"/>
<rect width="9" height="9" transform="matrix(-1 0 0 1 28 10)" fill="black"/>
<rect width="9" height="9" transform="matrix(-1 0 0 1 28 28)" fill="black"/>
<rect width="9" height="9" transform="matrix(-1 0 0 1 28 46)" fill="black"/>
<rect width="9" height="9" transform="matrix(-1 0 0 1 28 64)" fill="black"/>
<rect width="9" height="9" transform="matrix(-1 0 0 1 73 19)" fill="black"/>
<rect width="9" height="9" transform="matrix(-1 0 0 1 73 37)" fill="black"/>
<rect width="9" height="9" transform="matrix(-1 0 0 1 73 55)" fill="black"/>
<rect width="9" height="9" transform="matrix(-1 0 0 1 73 73)" fill="black"/>
<rect width="9" height="9" transform="matrix(-1 0 0 1 37 19)" fill="black"/>
<rect width="9" height="9" transform="matrix(-1 0 0 1 37 37)" fill="black"/>
<rect width="9" height="9" transform="matrix(-1 0 0 1 37 55)" fill="black"/>
<rect width="9" height="9" transform="matrix(-1 0 0 1 37 73)" fill="black"/>
<rect width="9" height="9" transform="matrix(-1 0 0 1 55 19)" fill="black"/>
<rect width="9" height="9" transform="matrix(-1 0 0 1 55 37)" fill="black"/>
<rect width="9" height="9" transform="matrix(-1 0 0 1 55 55)" fill="black"/>
<rect width="9" height="9" transform="matrix(-1 0 0 1 55 73)" fill="black"/>
<rect width="9" height="9" transform="matrix(-1 0 0 1 19 19)" fill="black"/>
<rect width="9" height="9" transform="matrix(-1 0 0 1 19 37)" fill="black"/>
<rect width="9" height="9" transform="matrix(-1 0 0 1 19 55)" fill="black"/>
<rect width="9" height="9" transform="matrix(-1 0 0 1 19 73)" fill="black"/>
<rect x="82" y="82" width="9" height="9" transform="rotate(-180 82 82)" fill="white"/>
<rect x="82" y="64" width="9" height="9" transform="rotate(-180 82 64)" fill="white"/>
<rect x="82" y="46" width="9" height="9" transform="rotate(-180 82 46)" fill="white"/>
<rect x="82" y="28" width="9" height="9" transform="rotate(-180 82 28)" fill="white"/>
<rect x="46" y="82" width="9" height="9" transform="rotate(-180 46 82)" fill="white"/>
<rect x="46" y="64" width="9" height="9" transform="rotate(-180 46 64)" fill="white"/>
<rect x="46" y="46" width="9" height="9" transform="rotate(-180 46 46)" fill="white"/>
<rect x="46" y="28" width="9" height="9" transform="rotate(-180 46 28)" fill="white"/>
<rect x="64" y="82" width="9" height="9" transform="rotate(-180 64 82)" fill="white"/>
<rect x="64" y="64" width="9" height="9" transform="rotate(-180 64 64)" fill="white"/>
<rect x="64" y="46" width="9" height="9" transform="rotate(-180 64 46)" fill="white"/>
<rect x="64" y="28" width="9" height="9" transform="rotate(-180 64 28)" fill="white"/>
<rect x="28" y="82" width="9" height="9" transform="rotate(-180 28 82)" fill="white"/>
<rect x="28" y="64" width="9" height="9" transform="rotate(-180 28 64)" fill="white"/>
<rect x="28" y="46" width="9" height="9" transform="rotate(-180 28 46)" fill="white"/>
<rect x="28" y="28" width="9" height="9" transform="rotate(-180 28 28)" fill="white"/>
<rect x="73" y="73" width="9" height="9" transform="rotate(-180 73 73)" fill="white"/>
<rect x="73" y="55" width="9" height="9" transform="rotate(-180 73 55)" fill="white"/>
<rect x="73" y="37" width="9" height="9" transform="rotate(-180 73 37)" fill="white"/>
<rect x="73" y="19" width="9" height="9" transform="rotate(-180 73 19)" fill="white"/>
<rect x="37" y="73" width="9" height="9" transform="rotate(-180 37 73)" fill="white"/>
<rect x="37" y="55" width="9" height="9" transform="rotate(-180 37 55)" fill="white"/>
<rect x="37" y="37" width="9" height="9" transform="rotate(-180 37 37)" fill="white"/>
<rect x="37" y="19" width="9" height="9" transform="rotate(-180 37 19)" fill="white"/>
<rect x="55" y="73" width="9" height="9" transform="rotate(-180 55 73)" fill="white"/>
<rect x="55" y="55" width="9" height="9" transform="rotate(-180 55 55)" fill="white"/>
<rect x="55" y="37" width="9" height="9" transform="rotate(-180 55 37)" fill="white"/>
<rect x="55" y="19" width="9" height="9" transform="rotate(-180 55 19)" fill="white"/>
<rect x="19" y="73" width="9" height="9" transform="rotate(-180 19 73)" fill="white"/>
<rect x="19" y="55" width="9" height="9" transform="rotate(-180 19 55)" fill="white"/>
<rect x="19" y="37" width="9" height="9" transform="rotate(-180 19 37)" fill="white"/>
<rect x="19" y="19" width="9" height="9" transform="rotate(-180 19 19)" fill="white"/>
<rect x="2.5" y="2.5" width="87" height="87" stroke="white" stroke-width="5"/>
</g>
<defs>
<clipPath id="clip0_8_340">
<rect width="92" height="92" fill="white"/>
</clipPath>
</defs>
</svg>
