<svg width="338" height="78" viewBox="0 0 338 78" fill="none" xmlns="http://www.w3.org/2000/svg">
<path d="M337.488 77.6515H296.58L289.249 64.1572H328.11L337.488 77.6515Z" fill="black"/>
<path d="M288.268 64.1572H248.427H247.899L243.723 51.8466H244.149H281.852H282.561L289.249 64.1572H288.268Z" fill="black"/>
<path fill-rule="evenodd" clip-rule="evenodd" d="M210.93 77.6515H252.477L247.899 64.1572H208.597L210.93 77.6515ZM206.469 51.8466H206.447H168.744V64.1572H208.585H208.597L206.469 51.8466ZM204.587 40.9564L206.469 51.8466H243.723L240.028 40.9564H204.587ZM202.827 30.7765H202.786H168.744V40.9564H204.555H204.587L202.827 30.7765ZM201.354 22.2538L202.827 30.7765H236.575L233.683 22.2538H201.354ZM199.922 13.9678H199.866H168.744V22.2538H201.305H201.354L199.922 13.9678ZM230.873 13.9678L233.683 22.2538H233.867H266.428H266.484L261.983 13.9678H230.987H230.873ZM228.062 5.68182L230.873 13.9678H199.922L198.489 5.68182H198.426H168.744V0H197.507L198.489 5.68182H228.062ZM228.062 5.68182L226.134 0H254.394L257.481 5.68182H257.791H287.473L293.231 13.9678H262.109H261.983L257.481 5.68182H228.108H228.062ZM271.114 30.7765H304.912L298.989 22.2538H266.484L271.114 30.7765ZM276.645 40.9564L271.114 30.7765H270.87H236.828H236.575L240.028 40.9564H240.365H276.176H276.645ZM276.645 40.9564L282.561 51.8466H319.555L311.987 40.9564H276.645Z" fill="black"/>
<path d="M168.744 77.6515V64.1572H128.902H128.891L126.558 77.6515H168.744Z" fill="black"/>
<path d="M168.744 51.8466V40.9564H132.933H132.901L131.019 51.8466H131.041H168.744Z" fill="black"/>
<path d="M168.744 30.7765V22.2538H136.183H136.134L134.661 30.7765H134.702H168.744Z" fill="black"/>
<path d="M168.744 13.9678V5.68182H139.062H138.999L137.566 13.9678H137.622H168.744Z" fill="black"/>
<path d="M139.981 0H111.354L109.426 5.68182H138.999L139.981 0Z" fill="black"/>
<path d="M137.566 13.9678H106.615L103.804 22.2538H136.134L137.566 13.9678Z" fill="black"/>
<path d="M97.4596 40.9564H132.901L134.661 30.7765H100.913L97.4596 40.9564Z" fill="black"/>
<path d="M93.7652 51.8466L89.589 64.1572H128.891L131.019 51.8466H93.7652Z" fill="black"/>
<path d="M40.9076 77.6515H85.0111L89.589 64.1572H89.0609H49.2193H48.2387L40.9076 77.6515Z" fill="black"/>
<path d="M55.6357 51.8466H93.3385H93.7652L97.4596 40.9564H97.1225H61.3118H60.8431L54.9267 51.8466H55.6357Z" fill="black"/>
<path d="M66.6177 30.7765H100.66H100.913L103.804 22.2538H103.621H71.0598H71.0037L66.3735 30.7765H66.6177Z" fill="black"/>
<path d="M109.379 5.68182H80.0068L75.5053 13.9678H106.5H106.615L109.426 5.68182H109.379Z" fill="black"/>
<path d="M83.0936 0H53.9636L50.015 5.68182H79.6972H80.0068L83.0936 0Z" fill="black"/>
<path d="M44.2567 13.9678L38.4984 22.2538H71.0037L75.5053 13.9678H75.3785H44.2567Z" fill="black"/>
<path d="M32.5756 30.7765L25.5011 40.9564H60.8431L66.3735 30.7765H32.5756Z" fill="black"/>
<path d="M17.933 51.8466L9.37781 64.1572H48.2387L54.9267 51.8466H17.933Z" fill="black"/>
<path d="M0 77.6515H40.9076L48.2387 64.1572H9.37781L0 77.6515Z" fill="white"/>
<path d="M49.2193 64.1572H89.0609H89.589L93.7652 51.8466H93.3385H55.6357H54.9267L48.2387 64.1572H49.2193Z" fill="white"/>
<path fill-rule="evenodd" clip-rule="evenodd" d="M126.558 77.6515H85.0111L89.589 64.1572H128.891L126.558 77.6515ZM131.019 51.8466H131.041H168.744V64.1572H128.902H128.891L131.019 51.8466ZM132.901 40.9564L131.019 51.8466H93.7652L97.4596 40.9564H132.901ZM134.661 30.7765H134.702H168.744V40.9564H132.933H132.901L134.661 30.7765ZM136.134 22.2538L134.661 30.7765H100.913L103.804 22.2538H136.134ZM137.566 13.9678H137.622H168.744V22.2538H136.183H136.134L137.566 13.9678ZM106.615 13.9678L103.804 22.2538H103.621H71.0598H71.0037L75.5053 13.9678H106.5H106.615ZM109.426 5.68182L106.615 13.9678H137.566L138.999 5.68182H139.062H168.744V0H139.981L138.999 5.68182H109.426ZM109.426 5.68182L111.354 0H83.0936L80.0068 5.68182H79.6972H50.015L44.2567 13.9678H75.3785H75.5053L80.0068 5.68182H109.379H109.426ZM66.3735 30.7765H32.5756L38.4984 22.2538H71.0037L66.3735 30.7765ZM60.8431 40.9564L66.3735 30.7765H66.6177H100.66H100.913L97.4596 40.9564H97.1225H61.3118H60.8431ZM60.8431 40.9564L54.9267 51.8466H17.933L25.5011 40.9564H60.8431Z" fill="white"/>
<path d="M168.744 77.6515V64.1572H208.585H208.597L210.93 77.6515H168.744Z" fill="white"/>
<path d="M168.744 51.8466V40.9564H204.555H204.587L206.469 51.8466H206.447H168.744Z" fill="white"/>
<path d="M168.744 30.7765V22.2538H201.305H201.354L202.827 30.7765H202.786H168.744Z" fill="white"/>
<path d="M168.744 13.9678V5.68182H198.426H198.489L199.922 13.9678H199.866H168.744Z" fill="white"/>
<path d="M197.507 0H226.134L228.062 5.68182H198.489L197.507 0Z" fill="white"/>
<path d="M199.922 13.9678H230.873L233.683 22.2538H201.354L199.922 13.9678Z" fill="white"/>
<path d="M240.028 40.9564H204.587L202.827 30.7765H236.575L240.028 40.9564Z" fill="white"/>
<path d="M243.723 51.8466L247.899 64.1572H208.597L206.469 51.8466H243.723Z" fill="white"/>
<path d="M296.58 77.6515H252.477L247.899 64.1572H248.427H288.268H289.249L296.58 77.6515Z" fill="white"/>
<path d="M281.852 51.8466H244.149H243.723L240.028 40.9564H240.365H276.176H276.645L282.561 51.8466H281.852Z" fill="white"/>
<path d="M270.87 30.7765H236.828H236.575L233.683 22.2538H233.867H266.428H266.484L271.114 30.7765H270.87Z" fill="white"/>
<path d="M228.108 5.68182H257.481L261.983 13.9678H230.987H230.873L228.062 5.68182H228.108Z" fill="white"/>
<path d="M254.394 0H283.524L287.473 5.68182H257.791H257.481L254.394 0Z" fill="white"/>
<path d="M293.231 13.9678L298.989 22.2538H266.484L261.983 13.9678H262.109H293.231Z" fill="white"/>
<path d="M304.912 30.7765L311.987 40.9564H276.645L271.114 30.7765H304.912Z" fill="white"/>
<path d="M319.555 51.8466L328.11 64.1572H289.249L282.561 51.8466H319.555Z" fill="white"/>
</svg>
