<svg width="338" height="210" viewBox="0 0 338 210" fill="none" xmlns="http://www.w3.org/2000/svg">
<path d="M337.488 209.652H296.58L289.249 173.218H328.11L337.488 209.652Z" fill="black"/>
<path d="M288.268 173.218H248.427H247.899L243.723 139.981H244.149H281.852H282.561L289.249 173.218H288.268Z" fill="black"/>
<path fill-rule="evenodd" clip-rule="evenodd" d="M210.93 209.652H252.477L247.899 173.218H208.597L210.93 209.652ZM206.469 139.981H206.447H168.744V173.218H208.585H208.597L206.469 139.981ZM204.587 110.578L206.469 139.981H243.723L240.028 110.578H204.587ZM202.827 83.0936H202.786H168.744V110.578H204.555H204.587L202.827 83.0936ZM201.354 60.0831L202.827 83.0936H236.575L233.683 60.0831H201.354ZM199.922 37.7117H199.866H168.744V60.0831H201.305H201.354L199.922 37.7117ZM230.873 37.7117L233.683 60.0831H233.867H266.428H266.484L261.983 37.7117H230.987H230.873ZM228.062 15.3404L230.873 37.7117H199.922L198.489 15.3404H198.426H168.744V0H197.507L198.489 15.3404H228.062ZM228.062 15.3404L226.134 0H254.394L257.481 15.3404H257.791H287.473L293.231 37.7117H262.109H261.983L257.481 15.3404H228.108H228.062ZM271.114 83.0936H304.912L298.989 60.0831H266.484L271.114 83.0936ZM276.645 110.578L271.114 83.0936H270.87H236.828H236.575L240.028 110.578H240.365H276.176H276.645ZM276.645 110.578L282.561 139.981H319.555L311.987 110.578H276.645Z" fill="black"/>
<path d="M168.744 209.652V173.218H128.902H128.891L126.558 209.652H168.744Z" fill="black"/>
<path d="M168.744 139.981V110.578H132.933H132.901L131.019 139.981H131.041H168.744Z" fill="black"/>
<path d="M168.744 83.0936V60.0831H136.183H136.134L134.661 83.0936H134.702H168.744Z" fill="black"/>
<path d="M168.744 37.7117V15.3404H139.062H138.999L137.566 37.7117H137.622H168.744Z" fill="black"/>
<path d="M139.981 0H111.354L109.426 15.3404H138.999L139.981 0Z" fill="black"/>
<path d="M137.566 37.7117H106.615L103.804 60.0831H136.134L137.566 37.7117Z" fill="black"/>
<path d="M97.4596 110.578H132.901L134.661 83.0936H100.913L97.4596 110.578Z" fill="black"/>
<path d="M93.7652 139.981L89.589 173.218H128.891L131.019 139.981H93.7652Z" fill="black"/>
<path d="M40.9076 209.652H85.0111L89.589 173.218H89.0609H49.2193H48.2387L40.9076 209.652Z" fill="black"/>
<path d="M55.6357 139.981H93.3385H93.7652L97.4596 110.578H97.1225H61.3118H60.8431L54.9267 139.981H55.6357Z" fill="black"/>
<path d="M66.6177 83.0936H100.66H100.913L103.804 60.0831H103.621H71.0598H71.0037L66.3735 83.0936H66.6177Z" fill="black"/>
<path d="M109.379 15.3404H80.0068L75.5053 37.7117H106.5H106.615L109.426 15.3404H109.379Z" fill="black"/>
<path d="M83.0936 0H53.9636L50.015 15.3404H79.6972H80.0068L83.0936 0Z" fill="black"/>
<path d="M44.2567 37.7117L38.4984 60.0831H71.0037L75.5053 37.7117H75.3785H44.2567Z" fill="black"/>
<path d="M32.5756 83.0936L25.5011 110.578H60.8431L66.3735 83.0936H32.5756Z" fill="black"/>
<path d="M17.933 139.981L9.37781 173.218H48.2387L54.9267 139.981H17.933Z" fill="black"/>
<path d="M0 209.652H40.9076L48.2387 173.218H9.37781L0 209.652Z" fill="white"/>
<path d="M49.2193 173.218H89.0609H89.589L93.7652 139.981H93.3385H55.6357H54.9267L48.2387 173.218H49.2193Z" fill="white"/>
<path fill-rule="evenodd" clip-rule="evenodd" d="M126.558 209.652H85.0111L89.589 173.218H128.891L126.558 209.652ZM131.019 139.981H131.041H168.744V173.218H128.902H128.891L131.019 139.981ZM132.901 110.578L131.019 139.981H93.7652L97.4596 110.578H132.901ZM134.661 83.0936H134.702H168.744V110.578H132.933H132.901L134.661 83.0936ZM136.134 60.0831L134.661 83.0936H100.913L103.804 60.0831H136.134ZM137.566 37.7117H137.622H168.744V60.0831H136.183H136.134L137.566 37.7117ZM106.615 37.7117L103.804 60.0831H103.621H71.0598H71.0037L75.5053 37.7117H106.5H106.615ZM109.426 15.3404L106.615 37.7117H137.566L138.999 15.3404H139.062H168.744V0H139.981L138.999 15.3404H109.426ZM109.426 15.3404L111.354 0H83.0936L80.0068 15.3404H79.6972H50.015L44.2567 37.7117H75.3785H75.5053L80.0068 15.3404H109.379H109.426ZM66.3735 83.0936H32.5756L38.4984 60.0831H71.0037L66.3735 83.0936ZM60.8431 110.578L66.3735 83.0936H66.6177H100.66H100.913L97.4596 110.578H97.1225H61.3118H60.8431ZM60.8431 110.578L54.9267 139.981H17.933L25.5011 110.578H60.8431Z" fill="white"/>
<path d="M168.744 209.652V173.218H208.585H208.597L210.93 209.652H168.744Z" fill="white"/>
<path d="M168.744 139.981V110.578H204.555H204.587L206.469 139.981H206.447H168.744Z" fill="white"/>
<path d="M168.744 83.0936V60.0831H201.305H201.354L202.827 83.0936H202.786H168.744Z" fill="white"/>
<path d="M168.744 37.7117V15.3404H198.426H198.489L199.922 37.7117H199.866H168.744Z" fill="white"/>
<path d="M197.507 0H226.134L228.062 15.3404H198.489L197.507 0Z" fill="white"/>
<path d="M199.922 37.7117H230.873L233.683 60.0831H201.354L199.922 37.7117Z" fill="white"/>
<path d="M240.028 110.578H204.587L202.827 83.0936H236.575L240.028 110.578Z" fill="white"/>
<path d="M243.723 139.981L247.899 173.218H208.597L206.469 139.981H243.723Z" fill="white"/>
<path d="M296.58 209.652H252.477L247.899 173.218H248.427H288.268H289.249L296.58 209.652Z" fill="white"/>
<path d="M281.852 139.981H244.149H243.723L240.028 110.578H240.365H276.176H276.645L282.561 139.981H281.852Z" fill="white"/>
<path d="M270.87 83.0936H236.828H236.575L233.683 60.0831H233.867H266.428H266.484L271.114 83.0936H270.87Z" fill="white"/>
<path d="M228.108 15.3404H257.481L261.983 37.7117H230.987H230.873L228.062 15.3404H228.108Z" fill="white"/>
<path d="M254.394 0H283.524L287.473 15.3404H257.791H257.481L254.394 0Z" fill="white"/>
<path d="M293.231 37.7117L298.989 60.0831H266.484L261.983 37.7117H262.109H293.231Z" fill="white"/>
<path d="M304.912 83.0936L311.987 110.578H276.645L271.114 83.0936H304.912Z" fill="white"/>
<path d="M319.555 139.981L328.11 173.218H289.249L282.561 139.981H319.555Z" fill="white"/>
</svg>
